<svg id="Layer_1" xmlns="http://www.w3.org/2000/svg" viewBox="0 0 200 200"><defs><style>.cls-1{fill:#399;}.cls-2{fill:#be1e2d;}</style></defs><rect class="cls-1" x="29.79" y="29.95" width="140.42" height="140.42" rx="12.93" transform="translate(100.11 -41.37) rotate(45)"/><path class="cls-2" d="M116.24,16.3h0a27,27,0,0,0,4.68,15.55,25.54,25.54,0,1,1-41.83,0,26.91,26.91,0,0,0,4.67-15.51h0c0-8.8-10.38-13.69-17-7.91a50.7,50.7,0,0,0,17,86.28v81.66c0,8,5.57,15.12,13.43,16.46a16.28,16.28,0,0,0,19-16V94.7a50.69,50.69,0,0,0,17-86.3C126.61,2.63,116.24,7.51,116.24,16.3Z"/><circle class="cls-2" cx="100" cy="47.04" r="11.64"/></svg>